<mxfile host="app.diagrams.net" modified="2020-10-26T21:51:44.616Z" agent="5.0 (Windows NT 10.0; Win64; x64) AppleWebKit/537.36 (KHTML, like Gecko) Chrome/86.0.4240.111 Safari/537.36" etag="4DMDggigUdG8UFQfUbDe" version="13.8.3" type="github">
  <diagram id="4DrFsbVTnnbgCBLrT30_" name="Page-1">
    <mxGraphModel dx="1422" dy="762" grid="1" gridSize="7" guides="1" tooltips="1" connect="1" arrows="1" fold="1" page="1" pageScale="1" pageWidth="850" pageHeight="1100" math="0" shadow="0">
      <root>
        <mxCell id="0" />
        <mxCell id="1" parent="0" />
        <mxCell id="laEGhpf13nhl8fzN_sp4-4" value="" style="verticalLabelPosition=bottom;html=1;verticalAlign=top;align=center;shape=mxgraph.floorplan.wallCorner;fillColor=#000000;direction=south;" vertex="1" parent="1">
          <mxGeometry x="580" y="110" width="100" height="170" as="geometry" />
        </mxCell>
        <mxCell id="laEGhpf13nhl8fzN_sp4-5" value="" style="verticalLabelPosition=bottom;html=1;verticalAlign=top;align=center;shape=mxgraph.floorplan.wallCorner;fillColor=#000000;" vertex="1" parent="1">
          <mxGeometry x="80" y="110" width="100" height="100" as="geometry" />
        </mxCell>
        <mxCell id="laEGhpf13nhl8fzN_sp4-6" value="" style="verticalLabelPosition=bottom;html=1;verticalAlign=top;align=center;shape=mxgraph.floorplan.wall;fillColor=#000000;" vertex="1" parent="1">
          <mxGeometry x="280" y="110" width="210" height="10" as="geometry" />
        </mxCell>
        <mxCell id="laEGhpf13nhl8fzN_sp4-7" value="" style="verticalLabelPosition=bottom;html=1;verticalAlign=top;align=center;shape=mxgraph.floorplan.window;" vertex="1" parent="1">
          <mxGeometry x="180" y="110" width="100" height="10" as="geometry" />
        </mxCell>
        <mxCell id="laEGhpf13nhl8fzN_sp4-8" value="" style="verticalLabelPosition=bottom;html=1;verticalAlign=top;align=center;shape=mxgraph.floorplan.window;" vertex="1" parent="1">
          <mxGeometry x="490" y="110" width="100" height="10" as="geometry" />
        </mxCell>
        <mxCell id="laEGhpf13nhl8fzN_sp4-9" value="" style="verticalLabelPosition=bottom;html=1;verticalAlign=top;align=center;shape=mxgraph.floorplan.wall;fillColor=#000000;direction=south;" vertex="1" parent="1">
          <mxGeometry x="80" y="213" width="10" height="310" as="geometry" />
        </mxCell>
        <mxCell id="laEGhpf13nhl8fzN_sp4-14" value="" style="verticalLabelPosition=bottom;html=1;verticalAlign=top;align=center;shape=mxgraph.floorplan.wallU;fillColor=#000000;rotation=90;" vertex="1" parent="1">
          <mxGeometry x="700" y="250" width="90" height="130" as="geometry" />
        </mxCell>
        <mxCell id="laEGhpf13nhl8fzN_sp4-15" value="" style="verticalLabelPosition=bottom;html=1;verticalAlign=top;align=center;shape=mxgraph.floorplan.toilet;rotation=90;" vertex="1" parent="1">
          <mxGeometry x="740" y="285" width="50" height="67" as="geometry" />
        </mxCell>
        <mxCell id="laEGhpf13nhl8fzN_sp4-18" value="" style="verticalLabelPosition=bottom;html=1;verticalAlign=top;align=center;shape=mxgraph.floorplan.sink_2;" vertex="1" parent="1">
          <mxGeometry x="690" y="285" width="40" height="35" as="geometry" />
        </mxCell>
        <mxCell id="laEGhpf13nhl8fzN_sp4-19" value="" style="verticalLabelPosition=bottom;html=1;verticalAlign=top;align=center;shape=mxgraph.floorplan.doorRight;aspect=fixed;" vertex="1" parent="1">
          <mxGeometry x="80" y="520" width="120" height="127.5" as="geometry" />
        </mxCell>
        <mxCell id="laEGhpf13nhl8fzN_sp4-20" value="" style="verticalLabelPosition=bottom;html=1;verticalAlign=top;align=center;shape=mxgraph.floorplan.wall;fillColor=#000000;direction=south;" vertex="1" parent="1">
          <mxGeometry x="190" y="310" width="10" height="210" as="geometry" />
        </mxCell>
        <mxCell id="laEGhpf13nhl8fzN_sp4-23" value="" style="verticalLabelPosition=bottom;html=1;verticalAlign=top;align=center;shape=mxgraph.floorplan.wall;fillColor=#000000;" vertex="1" parent="1">
          <mxGeometry x="200" y="510" width="470" height="10" as="geometry" />
        </mxCell>
        <mxCell id="laEGhpf13nhl8fzN_sp4-25" value="" style="verticalLabelPosition=bottom;html=1;verticalAlign=top;align=center;shape=mxgraph.floorplan.desk_corner_2;" vertex="1" parent="1">
          <mxGeometry x="90" y="125" width="90" height="85" as="geometry" />
        </mxCell>
        <mxCell id="laEGhpf13nhl8fzN_sp4-27" value="" style="verticalLabelPosition=bottom;html=1;verticalAlign=top;align=center;shape=mxgraph.floorplan.doorBypass;dx=0.25;" vertex="1" parent="1">
          <mxGeometry x="83" y="310" width="107" height="10" as="geometry" />
        </mxCell>
        <mxCell id="laEGhpf13nhl8fzN_sp4-28" value="" style="verticalLabelPosition=bottom;html=1;verticalAlign=top;align=center;shape=mxgraph.floorplan.desk_corner;rotation=90;" vertex="1" parent="1">
          <mxGeometry x="565" y="110" width="90" height="120" as="geometry" />
        </mxCell>
        <mxCell id="laEGhpf13nhl8fzN_sp4-29" value="" style="verticalLabelPosition=bottom;html=1;verticalAlign=top;align=center;shape=mxgraph.floorplan.wall;fillColor=#000000;direction=south;" vertex="1" parent="1">
          <mxGeometry x="670" y="350" width="10" height="170" as="geometry" />
        </mxCell>
        <mxCell id="laEGhpf13nhl8fzN_sp4-31" value="" style="verticalLabelPosition=bottom;html=1;verticalAlign=top;align=center;shape=mxgraph.floorplan.doorDoublePocket;dx=0.25;direction=south;" vertex="1" parent="1">
          <mxGeometry x="670" y="280" width="10" height="70" as="geometry" />
        </mxCell>
        <mxCell id="laEGhpf13nhl8fzN_sp4-33" value="" style="verticalLabelPosition=bottom;html=1;verticalAlign=top;align=center;shape=mxgraph.floorplan.wall;fillColor=#000000;" vertex="1" parent="1">
          <mxGeometry x="200" y="310" width="360" height="10" as="geometry" />
        </mxCell>
        <mxCell id="laEGhpf13nhl8fzN_sp4-34" value="" style="verticalLabelPosition=bottom;html=1;verticalAlign=top;align=center;shape=mxgraph.floorplan.wall;fillColor=#000000;direction=south;" vertex="1" parent="1">
          <mxGeometry x="550" y="320" width="10" height="190" as="geometry" />
        </mxCell>
        <mxCell id="laEGhpf13nhl8fzN_sp4-36" value="" style="verticalLabelPosition=bottom;html=1;verticalAlign=top;align=center;shape=mxgraph.floorplan.windowGlider;dx=0.25;" vertex="1" parent="1">
          <mxGeometry x="565" y="510" width="100" height="10" as="geometry" />
        </mxCell>
        <mxCell id="laEGhpf13nhl8fzN_sp4-37" value="" style="verticalLabelPosition=bottom;html=1;verticalAlign=top;align=center;shape=mxgraph.floorplan.office_chair;shadow=0;" vertex="1" parent="1">
          <mxGeometry x="280" y="125" width="40" height="43" as="geometry" />
        </mxCell>
        <mxCell id="laEGhpf13nhl8fzN_sp4-39" value="" style="verticalLabelPosition=bottom;html=1;verticalAlign=top;align=center;shape=mxgraph.floorplan.office_chair;shadow=0;direction=north;" vertex="1" parent="1">
          <mxGeometry x="220" y="185" width="43" height="40" as="geometry" />
        </mxCell>
        <mxCell id="laEGhpf13nhl8fzN_sp4-40" value="" style="verticalLabelPosition=bottom;html=1;verticalAlign=top;align=center;shape=mxgraph.floorplan.office_chair;shadow=0;direction=south" vertex="1" parent="1">
          <mxGeometry x="257" y="185" width="43" height="40" as="geometry" />
        </mxCell>
        <mxCell id="laEGhpf13nhl8fzN_sp4-41" value="" style="shape=rect;shadow=0;" vertex="1" parent="1">
          <mxGeometry x="250" y="150" width="100" height="100" as="geometry" />
        </mxCell>
        <mxCell id="laEGhpf13nhl8fzN_sp4-42" value="" style="verticalLabelPosition=bottom;html=1;verticalAlign=top;align=center;shape=mxgraph.floorplan.office_chair;shadow=0;direction=south;rotation=90;" vertex="1" parent="1">
          <mxGeometry x="118.5" y="175" width="43" height="40" as="geometry" />
        </mxCell>
        <mxCell id="laEGhpf13nhl8fzN_sp4-44" value="" style="verticalLabelPosition=bottom;html=1;verticalAlign=top;align=center;shape=mxgraph.floorplan.water_cooler;" vertex="1" parent="1">
          <mxGeometry x="630" y="470" width="40" height="40" as="geometry" />
        </mxCell>
        <mxCell id="laEGhpf13nhl8fzN_sp4-45" value="" style="verticalLabelPosition=bottom;html=1;verticalAlign=top;align=center;shape=mxgraph.floorplan.workstation;rotation=0;" vertex="1" parent="1">
          <mxGeometry x="118.5" y="124.99999999999999" width="40" height="35" as="geometry" />
        </mxCell>
        <mxCell id="laEGhpf13nhl8fzN_sp4-46" value="" style="verticalLabelPosition=bottom;html=1;verticalAlign=top;align=center;shape=mxgraph.floorplan.plant;" vertex="1" parent="1">
          <mxGeometry x="276.5" y="174" width="47" height="51" as="geometry" />
        </mxCell>
        <mxCell id="laEGhpf13nhl8fzN_sp4-47" value="" style="verticalLabelPosition=bottom;html=1;verticalAlign=top;align=center;shape=mxgraph.floorplan.office_chair;rotation=90;" vertex="1" parent="1">
          <mxGeometry x="350" y="185" width="40" height="37" as="geometry" />
        </mxCell>
        <mxCell id="laEGhpf13nhl8fzN_sp4-50" value="" style="verticalLabelPosition=bottom;html=1;verticalAlign=top;align=center;shape=mxgraph.floorplan.printer;direction=south;" vertex="1" parent="1">
          <mxGeometry x="80" y="168" width="33.5" height="36.5" as="geometry" />
        </mxCell>
        <mxCell id="laEGhpf13nhl8fzN_sp4-52" value="" style="verticalLabelPosition=bottom;html=1;verticalAlign=top;align=center;shape=mxgraph.floorplan.refrigerator;rotation=-180;" vertex="1" parent="1">
          <mxGeometry x="560" y="448" width="60" height="62" as="geometry" />
        </mxCell>
        <mxCell id="laEGhpf13nhl8fzN_sp4-54" value="" style="verticalLabelPosition=bottom;html=1;verticalAlign=top;align=center;shape=mxgraph.floorplan.chair;rotation=90;" vertex="1" parent="1">
          <mxGeometry x="599.5" y="360" width="41" height="52" as="geometry" />
        </mxCell>
        <mxCell id="laEGhpf13nhl8fzN_sp4-55" value="" style="verticalLabelPosition=bottom;html=1;verticalAlign=top;align=center;shape=mxgraph.floorplan.table;rotation=-90;" vertex="1" parent="1">
          <mxGeometry x="540" y="352" width="90" height="50" as="geometry" />
        </mxCell>
        <mxCell id="laEGhpf13nhl8fzN_sp4-57" value="" style="verticalLabelPosition=bottom;html=1;verticalAlign=top;align=center;shape=mxgraph.floorplan.wall;fillColor=#000000;direction=south;" vertex="1" parent="1">
          <mxGeometry x="380" y="320" width="10" height="190" as="geometry" />
        </mxCell>
        <mxCell id="laEGhpf13nhl8fzN_sp4-58" value="" style="verticalLabelPosition=bottom;html=1;verticalAlign=top;align=center;shape=mxgraph.floorplan.doorRight;aspect=fixed;" vertex="1" parent="1">
          <mxGeometry x="300" y="310" width="80" height="85" as="geometry" />
        </mxCell>
        <mxCell id="laEGhpf13nhl8fzN_sp4-59" value="" style="verticalLabelPosition=bottom;html=1;verticalAlign=top;align=center;shape=mxgraph.floorplan.doorLeft;aspect=fixed;" vertex="1" parent="1">
          <mxGeometry x="390" y="310" width="80" height="85" as="geometry" />
        </mxCell>
        <mxCell id="laEGhpf13nhl8fzN_sp4-60" value="" style="shape=mxgraph.rack.cisco.cisco_nexus_7000_9-slot_switch_chassis;html=1;labelPosition=right;align=left;spacingLeft=15;dashed=0;shadow=0;fillColor=#ffffff;" vertex="1" parent="1">
          <mxGeometry x="200.75" y="418" width="58.5" height="92" as="geometry" />
        </mxCell>
        <mxCell id="laEGhpf13nhl8fzN_sp4-61" value="" style="shape=mxgraph.rack.cisco.cisco_wave_7541;html=1;labelPosition=right;align=left;spacingLeft=15;dashed=0;shadow=0;fillColor=#ffffff;" vertex="1" parent="1">
          <mxGeometry x="200.75" y="388" width="59.25" height="32" as="geometry" />
        </mxCell>
        <mxCell id="laEGhpf13nhl8fzN_sp4-66" style="edgeStyle=orthogonalEdgeStyle;rounded=0;orthogonalLoop=1;jettySize=auto;html=1;entryX=0.567;entryY=0.031;entryDx=0;entryDy=0;entryPerimeter=0;" edge="1" parent="1" source="laEGhpf13nhl8fzN_sp4-64" target="laEGhpf13nhl8fzN_sp4-19">
          <mxGeometry relative="1" as="geometry" />
        </mxCell>
        <mxCell id="laEGhpf13nhl8fzN_sp4-64" value="&lt;font style=&quot;font-size: 36px&quot;&gt;Wejście&lt;/font&gt;" style="text;html=1;strokeColor=none;fillColor=none;align=center;verticalAlign=middle;whiteSpace=wrap;rounded=0;" vertex="1" parent="1">
          <mxGeometry x="29" y="647.5" width="151" height="56" as="geometry" />
        </mxCell>
        <mxCell id="laEGhpf13nhl8fzN_sp4-67" value="&lt;font style=&quot;font-size: 18px&quot;&gt;Server room&lt;/font&gt;" style="text;html=1;strokeColor=none;fillColor=none;align=center;verticalAlign=middle;whiteSpace=wrap;rounded=0;" vertex="1" parent="1">
          <mxGeometry x="250" y="448" width="133" height="42" as="geometry" />
        </mxCell>
        <mxCell id="laEGhpf13nhl8fzN_sp4-68" value="&lt;font style=&quot;font-size: 18px&quot;&gt;Stuff only&lt;/font&gt;" style="text;html=1;align=center;verticalAlign=middle;resizable=0;points=[];autosize=1;" vertex="1" parent="1">
          <mxGeometry x="463" y="332" width="84" height="28" as="geometry" />
        </mxCell>
        <mxCell id="laEGhpf13nhl8fzN_sp4-69" value="" style="verticalLabelPosition=bottom;html=1;verticalAlign=top;align=center;shape=mxgraph.floorplan.chair;rotation=90;direction=north;" vertex="1" parent="1">
          <mxGeometry x="438" y="427.75" width="52" height="42.25" as="geometry" />
        </mxCell>
        <mxCell id="laEGhpf13nhl8fzN_sp4-70" value="" style="fontColor=#0066CC;verticalAlign=top;verticalLabelPosition=bottom;labelPosition=center;align=center;html=1;outlineConnect=0;fillColor=#CCCCCC;strokeColor=#6881B3;gradientColor=none;gradientDirection=north;strokeWidth=2;shape=mxgraph.networks.security_camera;" vertex="1" parent="1">
          <mxGeometry x="390" y="397.5" width="42" height="35" as="geometry" />
        </mxCell>
        <mxCell id="laEGhpf13nhl8fzN_sp4-71" value="" style="verticalLabelPosition=bottom;html=1;verticalAlign=top;align=center;shape=mxgraph.floorplan.flat_tv;rotation=-180;" vertex="1" parent="1">
          <mxGeometry x="401" y="485" width="130" height="10" as="geometry" />
        </mxCell>
        <mxCell id="laEGhpf13nhl8fzN_sp4-74" style="edgeStyle=orthogonalEdgeStyle;rounded=0;orthogonalLoop=1;jettySize=auto;html=1;entryX=0.138;entryY=0.6;entryDx=0;entryDy=0;entryPerimeter=0;" edge="1" parent="1" source="laEGhpf13nhl8fzN_sp4-73" target="laEGhpf13nhl8fzN_sp4-71">
          <mxGeometry relative="1" as="geometry">
            <mxPoint x="532" y="490" as="targetPoint" />
          </mxGeometry>
        </mxCell>
        <mxCell id="laEGhpf13nhl8fzN_sp4-73" value="KotHub.pl" style="text;html=1;align=center;verticalAlign=middle;resizable=0;points=[];autosize=1;" vertex="1" parent="1">
          <mxGeometry x="484" y="412" width="63" height="28" as="geometry" />
        </mxCell>
      </root>
    </mxGraphModel>
  </diagram>
</mxfile>
